<svg width="301" height="138" viewBox="0 0 301 138" fill="none" xmlns="http://www.w3.org/2000/svg">
<path d="M68.1705 132.761C69.2099 134.147 71.0209 135.103 73.1273 135.103C75.7101 135.103 77.2849 133.824 77.2849 131.773C77.2849 129.56 75.4738 128.631 72.8635 128.631C72.1194 128.631 71.2926 128.631 71.0249 128.658V126.635C71.3162 126.662 72.143 126.662 72.8635 126.662C75.0998 126.662 76.9936 125.784 76.9936 123.733C76.9936 121.682 75.1825 120.697 73.0249 120.697C71.08 120.697 69.6429 121.442 68.3358 122.855L67.1114 121.469C68.391 119.926 70.4422 118.725 73.1864 118.725C76.5959 118.725 79.2062 120.457 79.2062 123.469C79.2062 126.028 77.0487 127.304 75.3715 127.599C76.9975 127.733 79.4739 129.119 79.4739 131.969C79.4739 134.82 77.1038 137.084 73.1864 137.084C70.1745 137.084 67.9657 135.753 66.8712 134.155L68.1783 132.769L68.1705 132.761Z" fill="#E30046"/>
<path d="M88.3364 136.757V118.989H94.4114C99.9273 118.989 103.522 122.851 103.522 127.887C103.522 132.922 99.9234 136.757 94.4114 136.757H88.3364ZM90.5491 134.784H94.4114C98.7265 134.784 101.23 131.694 101.23 127.883C101.23 124.072 98.8052 120.957 94.4114 120.957H90.5491V134.784Z" fill="#E30046"/>
<path d="M124.755 132.576C125.928 133.879 127.845 135.107 130.349 135.107C133.519 135.107 134.531 133.403 134.531 132.044C134.531 129.914 132.373 129.328 130.027 128.686C127.176 127.942 124.007 127.143 124.007 123.65C124.007 120.721 126.617 118.721 130.109 118.721C132.826 118.721 134.932 119.627 136.424 121.197L135.094 122.823C133.763 121.359 131.897 120.694 129.952 120.694C127.822 120.694 126.302 121.839 126.302 123.516C126.302 125.3 128.353 125.835 130.617 126.446C133.523 127.217 136.826 128.123 136.826 131.855C136.826 134.438 135.066 137.076 130.271 137.076C127.18 137.076 124.916 135.903 123.452 134.253L124.759 132.576H124.755Z" fill="#E30046"/>
<path d="M149.692 136.757V120.957H144.07V118.985H157.551V120.957H151.905V136.757H149.692Z" fill="#E30046"/>
<path d="M165.807 118.989H168.02V129.804C168.02 133.056 169.78 135.103 173.055 135.103C176.331 135.103 178.091 133.052 178.091 129.804V118.989H180.304V129.832C180.304 134.253 177.878 137.08 173.055 137.08C168.232 137.08 165.807 134.229 165.807 129.859V118.989Z" fill="#E30046"/>
<path d="M189.784 136.757V118.989H195.859C201.375 118.989 204.97 122.851 204.97 127.887C204.97 132.922 201.375 136.757 195.859 136.757H189.784ZM191.997 134.784H195.859C200.174 134.784 202.678 131.694 202.678 127.883C202.678 124.072 200.253 120.957 195.859 120.957H191.997V134.784Z" fill="#E30046"/>
<path d="M213.761 136.757V118.989H215.974V136.757H213.761Z" fill="#E30046"/>
<path d="M233.557 118.693C238.805 118.693 242.376 122.638 242.376 127.887C242.376 133.135 238.805 137.08 233.557 137.08C228.309 137.08 224.738 133.139 224.738 127.887C224.738 122.635 228.281 118.693 233.557 118.693ZM233.557 120.666C229.561 120.666 227.029 123.729 227.029 127.887C227.029 132.044 229.561 135.107 233.557 135.107C237.553 135.107 240.085 132.017 240.085 127.887C240.085 123.757 237.526 120.666 233.557 120.666Z" fill="#E30046"/>
<path d="M155.606 42.1401L149.322 52.0931L168.579 52.1719L177.489 52.2073C177.489 52.2073 177.292 52.8648 176.87 53.9121C174.386 60.2784 170.339 64.936 165.362 67.7865L165.37 67.7944C165.37 67.7944 160.338 70.9126 153.913 71.1409C152.224 71.2 150.645 71.1016 149.228 70.9244C145.236 70.4559 142.61 69.3062 142.61 69.3062C142.61 69.3062 141.913 69.1527 140.972 69.1684C140.212 69.196 139.271 69.3614 138.294 69.8377C137.684 70.1882 137.121 70.7 136.708 71.4598C136.456 71.9205 136.287 72.3654 136.168 72.7945C135.956 73.7198 135.944 74.5268 136.074 75.2198C136.074 75.2277 136.074 75.2395 136.078 75.2473C136.113 75.4363 136.161 75.6174 136.212 75.7867C136.212 75.7946 136.216 75.8025 136.22 75.8104C136.834 77.7395 138.42 78.6018 138.42 78.6018C157.582 86.6335 173.819 73.9835 173.819 73.9835C190.686 62.0226 188.477 42.144 188.477 42.144H155.602L155.606 42.1401Z" fill="#E30046"/>
<path d="M188.481 42.1401L183.445 34.2659H150.567L155.606 42.1401H188.481Z" fill="#912F46"/>
<path d="M150.527 34.3171L150.531 34.321L150.566 34.2659L150.527 34.3171Z" fill="#912F46"/>
<path d="M150.531 34.321L144.216 44.3685L149.322 52.0931L155.606 42.1401L150.531 34.321Z" fill="#6D3332"/>
<path d="M150.567 34.2659L150.531 34.321L155.606 42.1401L150.567 34.2659Z" fill="#6D3332"/>
<path d="M136.078 75.2434C136.078 75.2434 136.078 75.2276 136.074 75.2158C135.936 74.5229 135.92 73.7 136.168 72.7906C136.196 72.6803 136.212 72.574 136.243 72.4559C136.594 71.2039 137.283 70.4244 138.078 69.9322L134.464 63.7942C134.464 63.7942 135.783 62.4753 139.228 63.5068C142.669 64.5384 143.07 65.4557 148.692 65.2274C154.315 64.999 159.52 62.7509 159.52 62.7509L165.339 67.7629C172.221 63.7549 175.603 57.0342 176.87 53.9081C177.087 53.353 177.296 52.7861 177.489 52.2034L168.575 52.1679C168.559 52.1876 163.516 59.2469 155.228 62.0737C146.929 64.9045 139.661 62.1879 139.661 62.1879C139.661 62.1879 134.306 59.302 131.361 64.2155C131.361 64.2155 130.003 66.7195 131.475 69.0345C132.688 70.9362 135.688 75.4166 136.72 76.9521C136.554 76.6686 136.365 76.2788 136.216 75.8025C136.216 75.7946 136.212 75.7867 136.208 75.7788C136.157 75.6095 136.109 75.4284 136.074 75.2395L136.078 75.2434Z" fill="#6D3332"/>
<path d="M142.61 69.3062C142.61 69.3062 144.047 69.9204 146.397 70.4322C144.055 69.9125 142.61 69.3062 142.61 69.3062Z" fill="#6D3332"/>
<path d="M141.035 69.1645C141.944 69.1527 142.613 69.3023 142.613 69.3023C142.613 69.3023 141.972 69.1369 141.035 69.1645Z" fill="#6D3332"/>
<path d="M136.728 76.956C136.924 77.2946 137.086 77.4875 137.086 77.4875C137.086 77.4875 136.952 77.2867 136.728 76.956Z" fill="#6D3332"/>
<path d="M147.106 70.5819C147.055 70.57 146.999 70.5622 146.948 70.5504C146.999 70.5622 147.051 70.57 147.106 70.5819Z" fill="#6D3332"/>
<path d="M136.074 75.2158C136.074 75.2158 136.074 75.2316 136.078 75.2434C136.078 75.2355 136.078 75.2276 136.074 75.2158Z" fill="#6D3332"/>
<path d="M138.078 69.9362C137.283 70.4283 136.594 71.2078 136.243 72.4598C136.212 72.574 136.196 72.6803 136.168 72.7945C136.287 72.3654 136.456 71.9205 136.708 71.4598C137.121 70.7 137.684 70.1881 138.294 69.8377C138.224 69.8732 138.153 69.8968 138.078 69.9362Z" fill="#6D3332"/>
<path d="M165.339 67.7668L165.362 67.7865C170.339 64.936 174.386 60.2784 176.87 53.9121C175.603 57.0382 172.221 63.7588 165.339 67.7668Z" fill="#6D3332"/>
<path d="M136.22 75.8064C136.22 75.8064 136.216 75.7907 136.212 75.7828C136.212 75.7907 136.216 75.7985 136.22 75.8064Z" fill="#6D3332"/>
<path d="M168.583 52.1719H168.579L177.493 52.2073L168.583 52.1719Z" fill="#6D3332"/>
<path d="M140.495 69.192C140.661 69.1802 140.818 69.1684 140.972 69.1684C140.991 69.1684 141.015 69.1684 141.035 69.1684C140.862 69.1684 140.684 69.1802 140.495 69.196V69.192Z" fill="#912F46"/>
<path d="M157.697 70.6173C157.291 70.696 156.89 70.759 156.488 70.8181C156.89 70.759 157.287 70.7 157.697 70.6173Z" fill="#912F46"/>
<path d="M156.142 70.8693C152.634 71.3299 149.484 71.0346 147.106 70.5779C147.759 70.7078 148.468 70.8259 149.228 70.9204C151.24 71.1567 153.594 71.2118 156.142 70.8693Z" fill="#912F46"/>
<path d="M140.149 69.2314C140.224 69.2235 140.295 69.2078 140.369 69.2039C140.299 69.2117 140.224 69.2235 140.149 69.2314Z" fill="#912F46"/>
<path d="M146.952 70.5504C146.759 70.511 146.578 70.4716 146.397 70.4323C146.578 70.4716 146.763 70.511 146.952 70.5504Z" fill="#912F46"/>
<path d="M140.495 69.192C140.452 69.192 140.413 69.1999 140.369 69.2039C140.299 69.2117 140.224 69.2235 140.149 69.2314C139.539 69.318 138.893 69.4952 138.295 69.8377C139.271 69.3614 140.212 69.196 140.972 69.1684C140.818 69.1684 140.661 69.1802 140.495 69.192Z" fill="#912F46"/>
<path d="M157.697 70.6173C157.287 70.696 156.89 70.759 156.488 70.8181C156.374 70.8338 156.256 70.8574 156.141 70.8692C153.594 71.2118 151.24 71.1606 149.228 70.9204C150.645 71.0976 152.22 71.2 153.913 71.137C160.338 70.9086 165.37 67.7904 165.37 67.7904L165.362 67.7825C163.016 69.1251 160.468 70.0739 157.775 70.6015C157.748 70.6055 157.724 70.6094 157.697 70.6133V70.6173Z" fill="#912F46"/>
<path d="M146.952 70.5504C147.003 70.5622 147.055 70.5701 147.11 70.5819C149.488 71.0386 152.634 71.3339 156.145 70.8732C156.26 70.8575 156.378 70.8378 156.492 70.822C156.89 70.763 157.291 70.7 157.701 70.6212C159.535 70.259 161.445 69.6802 163.382 68.7905C164.067 68.4755 164.717 68.133 165.343 67.7708L159.523 62.7588C159.523 62.7588 154.319 65.0069 148.696 65.2353C143.074 65.4636 142.673 64.5463 139.232 63.5147C135.791 62.4832 134.468 63.8021 134.468 63.8021L138.082 69.9401C138.743 69.5346 139.472 69.3259 140.153 69.2393C140.228 69.2275 140.299 69.2196 140.373 69.2117C140.417 69.2078 140.456 69.2039 140.499 69.1999C140.684 69.1842 140.865 69.1763 141.039 69.1724C141.976 69.1488 142.617 69.3102 142.617 69.3102C142.617 69.3102 144.062 69.9165 146.405 70.4362C146.586 70.4755 146.767 70.5149 146.96 70.5543L146.952 70.5504Z" fill="#912F46"/>
<path d="M138.078 69.9362C138.149 69.8968 138.22 69.8771 138.294 69.8417C138.897 69.4992 139.542 69.322 140.149 69.2354C139.464 69.3259 138.735 69.5306 138.078 69.9362Z" fill="#912F46"/>
<path d="M140.369 69.2039C140.413 69.1999 140.452 69.196 140.495 69.192C140.452 69.192 140.413 69.1999 140.369 69.2039Z" fill="#912F46"/>
<path d="M163.378 68.7905C161.441 69.6802 159.531 70.259 157.697 70.6212C157.724 70.6173 157.748 70.6133 157.775 70.6094C160.468 70.0818 163.016 69.133 165.362 67.7904L165.339 67.7708C164.713 68.133 164.063 68.4794 163.378 68.7905Z" fill="#912F46"/>
<path d="M153.551 0.843633C153.011 0.804261 152.492 0.772768 151.984 0.749146C156.149 1.04443 159.803 1.83579 161.925 2.77676C160.425 2.02083 157.834 1.14679 153.551 0.843633Z" fill="#6D3332"/>
<path d="M140.523 1.59168C140.708 1.54837 140.897 1.50901 141.082 1.4657C140.893 1.50507 140.708 1.54837 140.523 1.59168Z" fill="#6D3332"/>
<path d="M136.417 12.7377C136.417 12.7377 139.106 11.1746 143.452 9.92657C138.802 11.214 136.417 12.7377 136.417 12.7377Z" fill="#6D3332"/>
<path d="M115.188 42.1125C115.188 42.1125 115.211 41.707 115.302 41.0102V41.0023C115.302 41.0023 115.317 40.8723 115.349 40.6834C115.676 38.4274 116.668 33.7698 119.613 28.7027C120.822 26.5649 122.361 24.3719 124.314 22.3206C124.585 22.0332 124.845 21.7734 125.109 21.5017C128.2 18.1945 130.928 16.0409 132.932 14.6984C135.208 13.1314 136.416 12.7377 136.416 12.7377L131.956 4.61542C130.16 5.46977 129.267 6.08396 129.267 6.08396C129.267 6.08396 119.475 11.6314 115.27 19.6985C111.061 27.7696 110.565 31.3642 110.565 31.3642C110.565 31.3642 109.991 34.2698 109.991 34.9982C109.991 35.7265 109.416 46.0142 109.416 46.0142L102.341 37.9234L114.502 54.1601L115.191 42.1125H115.188Z" fill="#6D3332"/>
<path d="M138.228 2.21377C138.877 2.02085 139.558 1.82793 140.271 1.65469C139.578 1.82399 138.901 2.00904 138.228 2.21377Z" fill="#6D3332"/>
<path d="M138.653 23.9821C151.161 15.9504 162.921 20.9426 162.921 20.9426C162.921 20.9426 166.476 22.0883 169.291 18.3599C172.103 14.6314 167.973 10.3282 167.973 10.3282C167.973 10.3282 160.169 7.84384 151.374 8.49346C150.948 8.52496 150.531 8.56828 150.118 8.61552C148.346 8.83994 146.748 9.13128 145.314 9.45806C139.905 10.7967 136.417 12.7377 136.417 12.7377C136.417 12.7377 135.09 13.2574 132.932 14.6984C131.042 15.9976 128.412 18.1158 125.109 21.5017C124.436 22.2222 123.755 22.9781 123.05 23.8089C121.68 25.4349 120.55 27.0885 119.613 28.6988C116.459 34.2619 115.538 39.4156 115.349 40.6794C115.333 40.7936 115.317 40.9038 115.302 41.0062L114.499 54.1562L73.4698 8.78087L73.2218 83.3893C73.2218 83.3893 76.2337 84.5665 80.0212 82.157C83.8087 79.7475 83.8087 76.2474 83.8087 76.2474L83.6788 38.7384L124.314 83.1885L126.093 44.9236C126.093 44.9236 126.152 32.0138 138.657 23.9821H138.653Z" fill="#E30046"/>
<path d="M150.586 8.54858C150.425 8.56826 150.275 8.59189 150.118 8.61157C150.531 8.56827 150.944 8.52496 151.374 8.48952C160.169 7.8399 167.973 10.3242 167.973 10.3242C167.973 10.3242 159.941 7.45406 150.59 8.54464L150.586 8.54858Z" fill="#E30046"/>
<path d="M119.609 28.6988C120.546 27.0885 121.676 25.4349 123.046 23.8089C123.747 22.9781 124.432 22.2183 125.105 21.5017C124.841 21.7734 124.582 22.0332 124.31 22.3206C122.357 24.3719 120.822 26.5648 119.609 28.7027V28.6988Z" fill="#E30046"/>
<path d="M115.302 41.0062C115.314 40.9038 115.329 40.7936 115.349 40.6794C115.321 40.8723 115.306 40.9983 115.306 40.9983V41.0062H115.302Z" fill="#E30046"/>
<path d="M136.416 12.7377C136.416 12.7377 135.208 13.1314 132.932 14.6984C135.094 13.2534 136.416 12.7377 136.416 12.7377Z" fill="#E30046"/>
<path d="M67.8712 0.634979L67.3633 75.1804L73.2217 83.3893L73.4698 8.78482L67.8712 0.634979Z" fill="#6D3332"/>
<path d="M274.771 8.09583L245.51 72.4677C245.51 72.4677 244.746 74.7198 245.195 76.9049C245.443 77.9128 245.943 78.9955 246.884 80.0388C250.097 83.594 253.884 82.909 253.884 82.909H300.012L274.767 8.09583H274.771ZM256.022 73.1882L259.022 66.5581L259.652 65.1801H259.672L272.031 37.8644L272.015 37.8132L273.507 34.6005L285.669 73.1528L282.799 73.1804H256.018L256.022 73.1882Z" fill="#E30046"/>
<path d="M272.019 37.8132L272.035 37.8644L273.511 34.6005L272.019 37.8132Z" fill="#6D3332"/>
<path d="M282.7 73.1528L282.803 73.1843L285.673 73.1528H282.7Z" fill="#6D3332"/>
<path d="M259.676 65.1801H259.656L259.022 66.5581L259.05 66.566L259.676 65.1801Z" fill="#6D3332"/>
<path d="M282.7 73.1528H285.673L273.511 34.6005L272.035 37.8644L280.74 65.3534L259.676 65.1801L259.05 66.566L282.7 73.1528Z" fill="#6D3332"/>
<path d="M256.07 73.1528L259.05 66.566L259.022 66.5581L256.026 73.1882L282.803 73.1843L282.7 73.1528H256.07Z" fill="#912F46"/>
<path d="M256.07 73.1528H282.7L259.05 66.566L256.07 73.1528Z" fill="#912F46"/>
<path d="M245.514 72.4677L274.775 8.09581L269.956 0.520782L241.156 63.6879C241.156 63.6879 240.293 65.1801 240.124 67.0739C239.951 68.9676 241.329 71.5504 241.329 71.5504L245.573 78.0899C245.396 77.708 245.286 77.3064 245.203 76.9049C244.609 74.4717 245.518 72.4677 245.518 72.4677H245.514Z" fill="#6D3332"/>
<path d="M245.514 72.4677C245.514 72.4677 244.605 74.4757 245.199 76.9049C244.75 74.7198 245.514 72.4677 245.514 72.4677Z" fill="#6D3332"/>
<path d="M5.41674 72.2669C5.41674 72.2669 4.65293 74.519 5.10176 76.7041C5.3498 77.712 5.84981 78.7947 6.79079 79.838C10.0035 83.3932 13.791 82.7082 13.791 82.7082H59.9183L34.6735 7.89502L5.41279 72.2669H5.41674ZM42.7091 72.9835H15.9288L18.9289 66.3573L19.5589 64.9793H19.5786L31.9372 37.6636L31.9214 37.6124L33.4136 34.3997L45.5754 72.952L42.7052 72.9796L42.7091 72.9835Z" fill="#E30046"/>
<path d="M31.9214 37.6124L31.9371 37.6636L33.4136 34.3997L31.9214 37.6124Z" fill="#6D3332"/>
<path d="M42.7052 72.9835L45.5753 72.9559H42.6028L42.7052 72.9835Z" fill="#6D3332"/>
<path d="M19.5785 64.9793H19.5588L18.9249 66.3573L18.9525 66.3652L19.5785 64.9793Z" fill="#6D3332"/>
<path d="M31.9371 37.6636L40.6421 65.1526L19.5785 64.9793L18.9525 66.3652L42.6028 72.9559H45.5753L33.4136 34.3997L31.9371 37.6636Z" fill="#6D3332"/>
<path d="M15.9721 72.9559L18.9525 66.3652L18.925 66.3573L15.9288 72.9874L42.7052 72.9835L42.6028 72.9559H15.9721Z" fill="#912F46"/>
<path d="M42.6028 72.9559L18.9526 66.3652L15.9722 72.9559H42.6028Z" fill="#912F46"/>
<path d="M5.4167 72.2669L34.6774 7.89502L29.8583 0.320007L1.05831 63.4872C1.05831 63.4872 0.196079 64.9793 0.0267833 66.8731C-0.14645 68.7668 1.23154 71.3496 1.23154 71.3496L5.47576 77.8892C5.29859 77.5072 5.18835 77.1057 5.10567 76.7041C4.51116 74.2709 5.42064 72.2669 5.42064 72.2669H5.4167Z" fill="#6D3332"/>
<path d="M5.41675 72.2669C5.41675 72.2669 4.50727 74.2749 5.10178 76.7041C4.65294 74.519 5.41675 72.2669 5.41675 72.2669Z" fill="#6D3332"/>
<path d="M183.41 8.48955C183.93 8.48955 212.446 8.40293 215.6 8.40293C218.753 8.40293 222.053 8.83207 222.053 8.83207C227.214 9.77698 231.175 13.222 231.175 13.222C231.175 13.222 231.565 13.5566 232.148 14.1944C232.12 14.1393 227.317 5.26897 222.053 2.98151C216.773 0.686166 213.675 0.571991 213.675 0.571991H177.989L178.181 0.855464L178.071 0.658608L183.406 8.48955H183.41Z" fill="#912F46"/>
<path d="M178.185 0.859406L183.871 11.0447L189.331 18.8914L183.386 8.48955L178.185 0.859406Z" fill="#6D3332"/>
<path d="M189.52 19.1631L189.473 19.0764H189.461L189.52 19.1631Z" fill="#6D3332"/>
<path d="M183.41 8.48954L178.075 0.6586L178.185 0.855456L183.382 8.48954C183.382 8.48954 183.402 8.48954 183.406 8.48954H183.41Z" fill="#6D3332"/>
<path d="M232.152 14.2023C232.152 14.2023 228.407 11.0802 225.423 9.85571C222.439 8.63127 217.864 8.50134 217.864 8.50134L183.41 8.48953L183.469 8.57615L189.473 19.0764H216.049C216.049 19.0764 218.887 18.9701 221.683 20.1749V20.167C221.683 20.167 222.234 20.3639 222.974 20.8285C222.994 20.8403 223.014 20.8521 223.029 20.8639C223.234 20.9938 223.447 21.1395 223.671 21.3127C223.919 21.4978 224.151 21.6986 224.384 21.9151C224.392 21.9191 224.395 21.9269 224.403 21.9309C224.915 22.4112 225.376 22.9781 225.769 23.6317C225.888 23.8207 226.002 24.0097 226.108 24.2144C226.136 24.2734 226.163 24.3364 226.191 24.3955C226.829 25.7066 227.222 27.3916 227.088 29.5177C227.088 29.5925 227.081 29.6673 227.077 29.7382C227.061 29.9468 227.041 30.1594 227.018 30.376C226.966 30.813 226.899 31.2343 226.813 31.6359C226.801 31.687 226.801 31.7303 226.789 31.7776C226.758 31.9311 226.703 32.0571 226.667 32.2028C226.632 32.3327 226.596 32.4587 226.557 32.5847C225.998 34.5296 225.077 36.0061 223.966 37.1006C223.691 37.3919 223.506 37.5494 223.506 37.5494H223.47C223.01 37.9392 222.537 38.2896 222.045 38.5809C221.746 38.7817 221.553 38.888 221.553 38.888C221.553 38.888 221.387 38.9668 221.116 39.0809C221.092 39.0928 221.073 39.1006 221.049 39.1085C221.037 39.1124 221.029 39.1164 221.017 39.1243C217.942 40.5495 214.856 40.3763 214.856 40.3763H214.659C214.635 40.3763 214.616 40.3763 214.592 40.3763H200.899L224.092 82.6767C224.092 82.6767 227.848 80.8971 229.514 77.3143C231.179 73.7276 229.888 70.2275 229.888 70.2275L229.258 68.8495L219.443 50.7309C219.443 50.7309 233.242 49.0104 236.856 35.069C239.734 23.9663 234.431 16.6905 232.148 14.1826V14.1865L232.152 14.2023Z" fill="#E30046"/>
<path d="M189.438 19.0764H189.461L189.331 18.8914L189.438 19.0764Z" fill="#E30046"/>
<path d="M231.175 13.2259C231.175 13.2259 227.214 9.78483 222.053 8.83599C222.053 8.83599 218.781 8.40683 215.6 8.40683C212.419 8.40683 183.93 8.48951 183.41 8.49345L217.864 8.50526C217.864 8.50526 222.439 8.63518 225.423 9.85963C228.407 11.0841 232.152 14.2062 232.152 14.2062V14.2023C231.569 13.5605 231.179 13.2298 231.179 13.2298L231.175 13.2259Z" fill="#E30046"/>
<path d="M183.41 8.48953H183.386L189.331 18.8914L189.461 19.0764H189.473L183.469 8.57615L183.41 8.48953Z" fill="#E30046"/>
<path d="M221.683 20.1749C221.695 20.2536 222.195 23.801 219.36 28.057C222.214 23.8758 221.695 20.2576 221.683 20.1749Z" fill="#B3394B"/>
<path d="M196.178 33.2068L200.906 40.3881H214.667C217.612 40.3723 220.002 39.5495 221.021 39.1321C221.033 39.1282 221.045 39.1242 221.053 39.1164C221.08 39.1046 221.092 39.0967 221.12 39.0888C221.431 38.9431 221.742 38.7699 222.045 38.5888C222.376 38.3683 222.84 38.0179 223.364 37.5337L196.174 33.2028L196.178 33.2068Z" fill="#912F46"/>
<path d="M226.651 25.6317C226.624 25.5294 226.581 25.4388 226.549 25.3404C226.581 25.4388 226.62 25.5294 226.651 25.6317Z" fill="#B3394B"/>
<path d="M226.305 24.6986C226.266 24.6042 226.234 24.4939 226.191 24.4034C226.163 24.3443 226.136 24.2813 226.108 24.2223C226.006 24.0136 225.888 23.8285 225.769 23.6396C225.348 22.9624 224.88 22.3915 224.403 21.9387C224.395 21.9348 224.391 21.9269 224.384 21.923C224.143 21.6946 223.903 21.4978 223.671 21.3206C223.458 21.1631 223.25 21.0056 223.029 20.8718C223.01 20.8599 222.99 20.8481 222.974 20.8363C222.572 20.5922 222.163 20.3914 221.75 20.2103C222.848 20.7851 225.1 21.9112 226.309 24.7065L226.305 24.6986Z" fill="#B3394B"/>
<path d="M221.12 39.0928C221.092 39.1046 221.08 39.1085 221.053 39.1203C221.076 39.1085 221.096 39.1006 221.12 39.0928Z" fill="#B3394B"/>
<path d="M222.974 20.8285C222.23 20.3639 221.683 20.167 221.683 20.167C221.702 20.1788 221.726 20.1906 221.75 20.2025C222.163 20.3836 222.576 20.5844 222.974 20.8285Z" fill="#B3394B"/>
<path d="M214.86 40.3881C214.86 40.3881 217.946 40.5613 221.021 39.1361C220.002 39.5534 217.608 40.3763 214.667 40.3881H214.864H214.86Z" fill="#B3394B"/>
<path d="M226.549 25.3365C226.581 25.4349 226.62 25.5255 226.651 25.6278C226.907 26.4743 227.073 27.4428 227.104 28.5689C227.112 28.8956 227.104 29.2106 227.092 29.5216C227.226 27.3956 226.836 25.7105 226.195 24.3994C226.238 24.4939 226.269 24.6002 226.309 24.6947C226.395 24.8995 226.478 25.1121 226.553 25.3365H226.549Z" fill="#B3394B"/>
<path d="M222.049 38.5927C222.541 38.3014 223.013 37.9471 223.474 37.5533L223.368 37.5376C222.844 38.0219 222.38 38.3723 222.049 38.5927Z" fill="#B3394B"/>
<path d="M225.769 23.6356C225.884 23.8285 226.006 24.0136 226.108 24.2183C226.002 24.0136 225.888 23.8207 225.769 23.6356Z" fill="#B3394B"/>
<path d="M226.557 32.5926C225.844 34.8879 224.628 36.4077 223.966 37.1085C225.077 36.0139 225.998 34.5336 226.557 32.5926Z" fill="#B3394B"/>
<path d="M223.029 20.8639C223.25 20.9978 223.458 21.1552 223.671 21.3127C223.447 21.1395 223.234 20.9938 223.029 20.8639Z" fill="#B3394B"/>
<path d="M224.384 21.9151C224.384 21.9151 224.395 21.9269 224.403 21.9308C224.395 21.923 224.391 21.919 224.384 21.9151Z" fill="#B3394B"/>
<path d="M226.789 31.7855C226.801 31.7343 226.801 31.691 226.813 31.6437C226.769 31.8406 226.718 32.0256 226.667 32.2146C226.703 32.0689 226.758 31.939 226.789 31.7894V31.7855Z" fill="#B3394B"/>
<path d="M227.077 29.746C227.061 29.9626 227.041 30.1752 227.018 30.3838C227.045 30.1634 227.061 29.9547 227.077 29.746Z" fill="#B3394B"/>
<path d="M196.178 33.2068L196.123 33.1989L195.694 32.4745L218.82 74.6292L224.096 82.6924L200.903 40.3881L196.178 33.2068Z" fill="#6D3332"/>
<path d="M226.872 31.2815C226.88 31.2382 226.884 31.1949 226.892 31.1555C226.884 31.1988 226.88 31.2382 226.872 31.2815Z" fill="#6D3332"/>
<path d="M219.36 28.0531C216.474 32.2776 211.923 32.4311 211.923 32.4311L195.698 32.4705H211.675C211.675 32.4705 216.494 32.3563 219.364 28.0531H219.36Z" fill="#6D3332"/>
<path d="M226.872 31.2815C226.848 31.4036 226.84 31.5177 226.813 31.6398C226.899 31.2421 226.966 30.8169 227.017 30.3799C226.986 30.628 226.939 30.8917 226.891 31.1516C226.884 31.1949 226.88 31.2382 226.872 31.2776V31.2815Z" fill="#6D3332"/>
<path d="M223.51 37.5612C223.51 37.5612 223.695 37.4037 223.97 37.1124C223.809 37.2699 223.643 37.4116 223.474 37.5573H223.51V37.5612Z" fill="#6D3332"/>
<path d="M226.667 32.2107C226.632 32.3406 226.592 32.4666 226.557 32.5926C226.596 32.4666 226.632 32.3406 226.667 32.2107Z" fill="#6D3332"/>
<path d="M227.088 29.5216C227.084 29.5964 227.084 29.6673 227.077 29.7421C227.08 29.6673 227.084 29.5964 227.088 29.5216Z" fill="#6D3332"/>
<path d="M223.368 37.5376C224.671 36.3328 226.293 34.3013 226.872 31.2854C226.88 31.2421 226.884 31.2028 226.892 31.1595C227.108 29.9468 227.163 28.5806 226.951 27.0452C226.884 26.5412 226.777 26.0766 226.651 25.6357C226.62 25.5333 226.584 25.4428 226.549 25.3443C226.478 25.1199 226.392 24.9112 226.305 24.7026C225.1 21.9072 222.844 20.7851 221.746 20.2064C221.726 20.1985 221.702 20.1906 221.683 20.1788C221.695 20.2576 222.214 23.8797 219.36 28.0609C216.49 32.3642 211.671 32.4784 211.671 32.4784H195.694L196.178 33.2146L223.368 37.5455V37.5376Z" fill="#6D3332"/>
<path d="M226.549 25.3364C226.474 25.116 226.392 24.8994 226.305 24.6947C226.392 24.9034 226.478 25.112 226.549 25.3364Z" fill="#6D3332"/>
<path d="M221.746 20.2025C221.726 20.1906 221.699 20.1788 221.679 20.167V20.1749C221.699 20.1828 221.722 20.1906 221.742 20.2025H221.746Z" fill="#6D3332"/>
<path d="M226.651 25.6317C226.777 26.0727 226.88 26.5412 226.951 27.0412C227.159 28.5767 227.108 29.9429 226.892 31.1555C226.939 30.8957 226.986 30.6319 227.018 30.3839C227.041 30.1752 227.065 29.9626 227.077 29.746C227.084 29.6712 227.084 29.6004 227.088 29.5256C227.104 29.2145 227.112 28.8996 227.1 28.5728C227.073 27.4468 226.903 26.4782 226.647 25.6317H226.651Z" fill="#6D3332"/>
<path d="M223.368 37.5376L223.474 37.5534C223.639 37.4116 223.809 37.2699 223.97 37.1085C224.632 36.4077 225.848 34.884 226.561 32.5926C226.596 32.4666 226.636 32.3406 226.671 32.2107C226.722 32.0256 226.773 31.8367 226.817 31.6398C226.84 31.5138 226.852 31.4036 226.876 31.2815C226.301 34.3013 224.675 36.3329 223.372 37.5337L223.368 37.5376Z" fill="#6D3332"/>
<path d="M196.178 33.2068L195.694 32.4745L196.123 33.1989L196.178 33.2068Z" fill="#6D3332"/>
<path d="M163.724 4.01695C163.453 3.59568 162.819 3.17441 161.925 2.77676C163.248 3.44214 163.724 4.01695 163.724 4.01695Z" fill="#912F46"/>
<path d="M143.452 9.92262C144.035 9.7612 144.657 9.60372 145.31 9.4541C145.818 9.32812 146.334 9.21 146.874 9.09583C145.641 9.33599 144.499 9.61946 143.448 9.92262H143.452Z" fill="#912F46"/>
<path d="M140.271 1.65467C140.354 1.63498 140.44 1.61136 140.527 1.59167C140.44 1.61136 140.358 1.63105 140.271 1.65467Z" fill="#912F46"/>
<path d="M151.984 0.749151C150.511 0.642849 148.984 0.599533 147.429 0.63103C145.248 0.678276 143.082 1.01294 141.082 1.46571C144.066 0.816085 147.409 0.520794 151.984 0.74521V0.749151Z" fill="#912F46"/>
<path d="M138.228 2.21378C134.535 3.31617 131.94 4.58786 131.94 4.58786L131.952 4.61148C133.066 4.07997 134.523 3.4579 136.338 2.82797C136.972 2.60749 137.598 2.40276 138.228 2.21378Z" fill="#912F46"/>
<path d="M143.452 9.92262C144.503 9.61946 145.645 9.33599 146.877 9.09582C148.37 8.78479 149.976 8.52888 151.677 8.37534C160.571 7.57216 167.969 10.3242 167.969 10.3242L163.724 4.01301C163.724 4.01301 163.252 3.43818 161.925 2.77281C159.803 1.83184 156.149 1.04048 151.984 0.745197C147.409 0.516844 144.066 0.812134 141.082 1.4657C140.897 1.509 140.708 1.54837 140.523 1.59167C140.436 1.61136 140.354 1.63105 140.267 1.65467C139.554 1.83184 138.873 2.02083 138.224 2.21375C137.594 2.40667 136.968 2.61139 136.334 2.82794C134.519 3.45788 133.062 4.07994 131.948 4.61145L136.409 12.7337C136.409 12.7337 138.795 11.2061 143.444 9.92262H143.452Z" fill="#912F46"/>
<path d="M145.311 9.45411C146.744 9.12339 148.342 8.83205 150.114 8.61157C148.984 8.73362 147.897 8.89897 146.874 9.09583C146.334 9.21001 145.814 9.32812 145.311 9.45411Z" fill="#912F46"/>
<path d="M151.677 8.37535C149.976 8.5289 148.366 8.78481 146.877 9.09584C147.901 8.89505 148.988 8.73363 150.118 8.61158C150.275 8.5919 150.425 8.56827 150.586 8.54859C159.937 7.45801 167.969 10.3282 167.969 10.3282C167.969 10.3282 160.567 7.57612 151.677 8.37929V8.37535Z" fill="#912F46"/>
<path d="M114.499 54.1601L110.656 49.3962L101.9 37.4864L67.8712 0.634979L73.4698 8.78482L114.499 54.1601Z" fill="#912F46"/>
<path d="M114.499 54.1601L102.337 37.9234L110.656 49.3962L114.499 54.1601Z" fill="#912F46"/>
</svg>
